<svg width="22" height="21" viewBox="0 0 22 21" fill="none" xmlns="http://www.w3.org/2000/svg">
<path d="M6.39 6.56442C5.66928 6.75846 1.42812 6.9525 0.347039 10.667C-0.70632 14.3815 1.56672 17.2366 3.92292 17.791C6.30684 18.3454 8.16408 17.8187 9.46692 16.0447C10.9084 14.0211 11.241 10.8887 11.241 10.8887L14.9555 11.36C14.9555 11.36 14.6228 13.1341 14.0684 15.1022C13.819 16.0169 12.5993 17.3198 12.3775 18.0682C11.8508 19.9255 13.5972 21.1451 14.9555 20.3135C16.8959 19.1216 17.6443 17.7079 18.2819 15.1853C18.6422 13.7439 18.9194 12.8291 18.7254 12.4133C18.7254 12.4133 21.7469 12.8014 21.9686 10.6115C22.1904 8.42166 19.6124 7.6455 19.3075 7.61778C19.3075 7.61778 20.0837 2.6559 17.3948 2.60046C15.1495 2.54502 15.2604 6.70302 15.2604 6.70302L11.0747 6.14862C11.0747 6.14862 11.7677 3.73698 10.7975 2.15694C10.0213 0.909543 8.52444 0.410583 5.72472 0.438304C4.0338 0.438304 2.48148 1.49166 2.86956 3.40434C3.17448 5.12298 6.77808 5.09526 6.5286 4.8735C6.5286 4.8735 6.72264 5.92686 6.39 6.56442ZM6.69492 11.6372C6.69492 12.5242 6.36228 13.1895 5.39208 13.0786C4.64364 12.9677 4.4496 11.8589 4.8654 11.2214C5.30892 10.5561 6.69492 10.7779 6.69492 11.6372Z" fill="#608959"/>
</svg>
